# xmcd
#
# Track frame offsets:
#	150
#	16264
#	33179
#	51793
#	69486
#	90046
#	106296
#	124497
#	145993
#	164217
#	183147
#	199668
#
# Disc length: 2912 seconds
#
# Revision: 1
# Processed by: cddbd v1.5.2PL0 Copyright (c) Steve Scherf et al.
# Submitted via: audiograbber 1.83.01
#
DISCID=9d0b5e0c
DTITLE=George Belliveau - Whisky Amer
DYEAR=2011
DGENRE=Country
TTITLE0=La Band
TTITLE1=Call In Sick
TTITLE2=Leve Ta Drink
TTITLE3=Papier Jauni
TTITLE4=Johnny Cash
TTITLE5=Ma Mexicaine
TTITLE6=De Fil En Amour
TTITLE7=C'est A Determiner
TTITLE8=Peux-Tu Me Blamer?
TTITLE9=Bienvenue Aux Annees 2000
TTITLE10=Trop Tard
TTITLE11=Petit Bout De Fille
EXTD=
EXTT0=
EXTT1=
EXTT2=
EXTT3=
EXTT4=
EXTT5=
EXTT6=
EXTT7=
EXTT8=
EXTT9=
EXTT10=
EXTT11=
PLAYORDER=
